<svg data-v-6bb51ffe="" width="16" height="16" viewBox="0 0 17 16" fill="none" xmlns="http://www.w3.org/2000/svg" alt="like" class="ui-icon  actions__favorite-icon">
<path fill-rule="evenodd" clip-rule="evenodd" d="M8.24598 3.20325C6.73891 1.80054 4.45606 1.49005 2.69571 2.99414C0.824803 4.59268 0.554859 7.28051 2.03204 9.18134C2.6046 9.91812 3.7305 11.0342 4.82293 12.0653C5.92494 13.1054 7.02476 14.0887 7.56728 14.5691L7.57645 14.5773C7.62882 14.6237 7.6876 14.6757 7.74296 14.7174C7.80745 14.766 7.89419 14.8218 8.00791 14.8557C8.16277 14.9019 8.32952 14.9019 8.48437 14.8557C8.59809 14.8218 8.68484 14.766 8.74933 14.7174C8.80469 14.6757 8.86346 14.6237 8.91583 14.5773L8.925 14.5691C9.46753 14.0887 10.5674 13.1054 11.6694 12.0653C12.7618 11.0342 13.8877 9.91812 14.4602 9.18134C15.933 7.2862 15.7029 4.57848 13.7914 2.98975C12.0091 1.50846 9.75167 1.79994 8.24598 3.20325ZM7.86618 4.24982C6.68042 2.86356 4.76961 2.53746 3.3453 3.75441C1.87614 5.0097 1.67585 7.09332 2.82164 8.56772C3.33949 9.23409 4.40879 10.2993 5.50933 11.3381C6.6003 12.3678 7.69124 13.3431 8.23027 13.8205C8.2358 13.8254 8.24108 13.8301 8.24614 13.8346C8.25121 13.8301 8.25649 13.8254 8.26202 13.8205C8.80104 13.3431 9.89198 12.3678 10.983 11.3381C12.0835 10.2993 13.1528 9.23409 13.6706 8.56772C14.8209 7.08764 14.6382 4.99388 13.1522 3.7588C11.694 2.54686 9.80809 2.86797 8.6261 4.24982C8.53111 4.36087 8.39228 4.42481 8.24614 4.42481C8.1 4.42481 7.96118 4.36087 7.86618 4.24982Z" fill="#1F2026"></path>
</svg>