<svg data-v-de71027a="" width="16" height="16" viewBox="0 0 16 16" fill="none" xmlns="http://www.w3.org/2000/svg" class="ui-icon ">
<path d="M0.75 5.52988C0.75 4.6898 0.75 4.26976 0.91349 3.9489C1.0573 3.66665 1.28677 3.43718 1.56901 3.29337C1.88988 3.12988 2.30992 3.12988 3.15 3.12988H12.85C13.6901 3.12988 14.1101 3.12988 14.431 3.29337C14.7132 3.43718 14.9427 3.66665 15.0865 3.9489C15.25 4.26976 15.25 4.6898 15.25 5.52988V10.5199C15.25 11.36 15.25 11.78 15.0865 12.1009C14.9427 12.3831 14.7132 12.6126 14.431 12.7564C14.1101 12.9199 13.6901 12.9199 12.85 12.9199H3.15C2.30992 12.9199 1.88988 12.9199 1.56901 12.7564C1.28677 12.6126 1.0573 12.3831 0.91349 12.1009C0.75 11.78 0.75 11.36 0.75 10.5199V5.52988Z" fill="#7F4DFF"></path>
<path d="M13.5739 3.13633C13.2608 3.22084 13.0243 3.39895 12.8851 3.63488C12.7397 3.39419 12.4729 3.21275 12.1654 3.12988H11.3676C10.752 3.28479 10.4336 3.78455 10.4336 4.37859V6.09981H11.2699V4.50086C11.2699 4.15733 11.4464 3.85615 11.852 3.85615C11.9343 3.85138 12.0178 3.8639 12.0942 3.89432C12.1717 3.92473 12.2421 3.97066 12.3006 4.0303C12.359 4.08994 12.4038 4.1615 12.4336 4.24083C12.4622 4.32015 12.4753 4.40424 12.4694 4.48833V6.1016H13.3056V4.48714C13.3056 4.14361 13.5049 3.85317 13.9057 3.85317C14.3065 3.85317 14.4998 4.15554 14.4998 4.49787V6.09682H15.2494V5.52988C15.2494 4.6898 15.2494 4.26976 15.086 3.9489C14.9421 3.66665 14.7127 3.43718 14.4304 3.29337C14.2188 3.18553 13.964 3.14882 13.5739 3.13633Z" fill="white" fill-opacity="0.9"></path>
<path d="M0.75 5.17903C0.958129 5.87268 1.63327 6.15472 2.16529 6.15472C2.80233 6.15472 3.64335 5.74976 3.64335 4.71918V3.13693H2.8071L2.80889 4.68876C2.80889 5.15932 2.54882 5.37641 2.1641 5.37641C1.77937 5.37641 1.52229 5.16231 1.52229 4.68876V3.31792C1.26119 3.46263 1.04882 3.68221 0.912938 3.9489C0.773978 4.22162 0.753128 4.56599 0.75 5.17903Z" fill="white" fill-opacity="0.9"></path>
<path d="M6.72774 3.13693V3.85798L5.0582 5.3794H6.82794V6.10044H3.94697V5.3794L5.61948 3.85798H4.01258V3.13693H6.72774Z" fill="white" fill-opacity="0.9"></path>
<path d="M8.57862 5.37641C8.96632 5.37641 9.22639 5.15932 9.22639 4.68876L9.22758 3.13693H10.0638V4.71918C10.0638 5.74976 9.21684 6.15472 8.58279 6.15472C7.94874 6.15472 7.10353 5.75036 7.10353 4.71918V3.13693H7.93979V4.68876C7.93979 5.16231 8.19091 5.37641 8.57862 5.37641Z" fill="white" fill-opacity="0.9"></path>
<path d="M13.5739 3.13633C13.2608 3.22084 13.0243 3.39895 12.8851 3.63488C12.7397 3.39419 12.4729 3.21275 12.1654 3.12988H11.3676C10.752 3.28479 10.4336 3.78455 10.4336 4.37859V6.09981H11.2699V4.50086C11.2699 4.15733 11.4464 3.85615 11.852 3.85615C11.9343 3.85138 12.0178 3.8639 12.0942 3.89432C12.1717 3.92473 12.2421 3.97066 12.3006 4.0303C12.359 4.08994 12.4038 4.1615 12.4336 4.24083C12.4622 4.32015 12.4753 4.40424 12.4694 4.48833V6.10159H13.3056V4.48714C13.3056 4.14361 13.5049 3.85317 13.9057 3.85317C14.3065 3.85317 14.4998 4.15554 14.4998 4.49787V6.09682H15.2494V5.52988C15.2494 4.6898 15.2494 4.26976 15.086 3.9489C14.9421 3.66665 14.7127 3.43718 14.4304 3.29337C14.2188 3.18553 13.964 3.14882 13.5739 3.13633Z" fill="url(#paint0_linear_14522_52105)" fill-opacity="0.6"></path>
<path d="M0.75 5.17903C0.958129 5.87268 1.63327 6.15472 2.16529 6.15472C2.80233 6.15472 3.64335 5.74976 3.64335 4.71918V3.13693H2.8071L2.80889 4.68876C2.80889 5.15932 2.54882 5.37641 2.1641 5.37641C1.77937 5.37641 1.52229 5.16231 1.52229 4.68876V3.31792C1.26119 3.46263 1.04882 3.68221 0.912938 3.9489C0.773978 4.22162 0.753128 4.56599 0.75 5.17903Z" fill="url(#paint1_linear_14522_52105)" fill-opacity="0.6"></path>
<path d="M6.72774 3.13693V3.85798L5.0582 5.3794H6.82794V6.10044H3.94697V5.3794L5.61948 3.85798H4.01258V3.13693H6.72774Z" fill="url(#paint2_linear_14522_52105)" fill-opacity="0.6"></path>
<path d="M8.57862 5.37641C8.96632 5.37641 9.22639 5.15932 9.22639 4.68876L9.22758 3.13693H10.0638V4.71918C10.0638 5.74976 9.21684 6.15472 8.58279 6.15472C7.94874 6.15472 7.10353 5.75036 7.10353 4.71918V3.13693H7.93979V4.68876C7.93979 5.16231 8.19091 5.37641 8.57862 5.37641Z" fill="url(#paint3_linear_14522_52105)" fill-opacity="0.6"></path>
<defs>
<linearGradient id="paint0_linear_14522_52105" x1="0.320316" y1="4.6423" x2="15.2494" y2="4.64473" gradientUnits="userSpaceOnUse">
<stop stop-color="#7000FF"></stop>
<stop offset="0.42" stop-color="#6800EC" stop-opacity="0.6"></stop>
<stop offset="1" stop-color="#7000FF" stop-opacity="0"></stop>
</linearGradient>
<linearGradient id="paint1_linear_14522_52105" x1="0.320316" y1="4.6423" x2="15.2494" y2="4.64473" gradientUnits="userSpaceOnUse">
<stop stop-color="#7000FF"></stop>
<stop offset="0.42" stop-color="#6800EC" stop-opacity="0.6"></stop>
<stop offset="1" stop-color="#7000FF" stop-opacity="0"></stop>
</linearGradient>
<linearGradient id="paint2_linear_14522_52105" x1="0.320316" y1="4.6423" x2="15.2494" y2="4.64473" gradientUnits="userSpaceOnUse">
<stop stop-color="#7000FF"></stop>
<stop offset="0.42" stop-color="#6800EC" stop-opacity="0.6"></stop>
<stop offset="1" stop-color="#7000FF" stop-opacity="0"></stop>
</linearGradient>
<linearGradient id="paint3_linear_14522_52105" x1="0.320316" y1="4.6423" x2="15.2494" y2="4.64473" gradientUnits="userSpaceOnUse">
<stop stop-color="#7000FF"></stop>
<stop offset="0.42" stop-color="#6800EC" stop-opacity="0.6"></stop>
<stop offset="1" stop-color="#7000FF" stop-opacity="0"></stop>
</linearGradient>
</defs>
</svg>